<svg version="1.0"
    xmlns="http://www.w3.org/2000/svg" 
    width="28.000000pt" 
    height="28.000000pt" 
    viewBox="0 0 263.000000 264.000000" 
    preserveAspectRatio="xMidYMid meet">

    <g 
    transform="translate(0.000000,254.000000) scale(0.100000,-0.100000)" 
    fill="#B93F2F" 
    stroke="none">
    
    <path    d="M1226 2280 c-413 -65 -722 -342 -833 -747 -24 -86 -27 -115 -27 -243
                1 -125 5 -159 28 -245 100 -368 353 -622 717 -720 537 -144 1098 198 1219 743
                23 101 37 252 24 252 -5 0 -150 -141 -324 -314 -206 -206 -331 -322 -360 -337
                -63 -33 -197 -34 -255 -2 -192 103 -204 374 -22 487 39 24 62 30 125 34 100 5
                176 -21 225 -78 l33 -39 157 157 158 158 -176 174 c-97 96 -178 177 -181 179
                -2 3 -125 -115 -272 -262 -301 -300 -316 -311 -437 -311 -111 0 -206 58 -256
                157 -64 124 -8 292 121 362 47 25 66 29 130 29 86 1 122 -14 187 -76 l42 -41
                38 31 c21 17 153 146 293 286 l254 255 -69 32 c-152 69 -386 103 -539 79z"/>
    </g>
</svg>