<svg xmlns="http://www.w3.org/2000/svg" viewBox="0 0 50 50">
    <path d="M 6 6 C 4.35 6 3 7.35 3 9 L 3 41 C 3 42.65 4.35 44 6 44 L 44 44 C 45.66 44 47 42.66 47 41 L 47 9 C 47 7.35 45.65 6 44 6 L 11 6 L 11 39 C 11 39.55 10.55 40 10 40 C 9.45 40 9 39.55 9 39 L 9 6 L 6 6 z M 28 11 C 35.73 11 42 17.27 42 25 C 42 25.761735 41.921856 26.503645 41.804688 27.232422 C 41.732709 27.655275 41.652629 28.075473 41.544922 28.488281 C 41.537212 28.518266 41.529388 28.548218 41.521484 28.578125 C 41.396476 29.04554 41.247402 29.504226 41.082031 29.951172 C 39.3156 34.612401 35.140087 38.076022 30.070312 38.830078 C 29.720745 38.885691 29.360239 38.918853 28.998047 38.949219 C 28.667178 38.972628 28.33681 39 28 39 C 20.27 39 14 32.73 14 25 C 14 17.27 20.27 11 28 11 z M 28 19 C 24.698136 19 22 21.698136 22 25 C 22 28.301864 24.698136 31 28 31 C 31.301864 31 34 28.301864 34 25 C 34 21.698136 31.301864 19 28 19 z M 28 21 C 30.220984 21 32 22.779016 32 25 C 32 27.220984 30.220984 29 28 29 C 25.779016 29 24 27.220984 24 25 C 24 22.779016 25.779016 21 28 21 z M 28 23 C 26.907275 23 26 23.907275 26 25 C 26 26.092725 26.907275 27 28 27 C 29.092725 27 30 26.092725 30 25 C 30 23.907275 29.092725 23 28 23 z M 41.798828 27.277344 C 41.743722 27.613144 41.678173 27.944167 41.599609 28.271484 C 41.678423 27.944183 41.744006 27.613153 41.798828 27.277344 z M 41.474609 28.755859 C 41.363714 29.154108 41.236185 29.544619 41.091797 29.927734 C 41.239493 29.545443 41.363133 29.152533 41.474609 28.755859 z M 29.71875 38.882812 C 29.508454 38.908627 29.297053 38.928937 29.083984 38.945312 C 29.297836 38.928989 29.509324 38.907948 29.71875 38.882812 z"></path>
</svg>
